<?xml version="1.0" encoding="iso-8859-1"?>
<!-- Generator: Adobe Illustrator 19.0.0, SVG Export Plug-In . SVG Version: 6.00 Build 0)  -->
<svg version="1.1" id="Layer_1" xmlns="http://www.w3.org/2000/svg" xmlns:xlink="http://www.w3.org/1999/xlink" x="0px" y="0px"
	 viewBox="0 0 484.431 484.431" style="enable-background:new 0 0 484.431 484.431;" xml:space="preserve">
<path style="fill:#3D890B;" d="M129.883,185.1c-0.134,0.772-0.236,1.536-0.236,2.347c0,7.885,6.396,14.281,14.289,14.281
	c0.764,0,1.489-0.11,2.213-0.221c-0.709,1.158-1.229,2.45-1.229,3.915c0,4.214,3.419,7.633,7.633,7.633
	c1.678,0,3.135-0.646,4.403-1.56c-0.063,0.362-0.213,0.693-0.213,1.079c0,3.805,3.096,6.9,6.9,6.9c0.528,0,1.008-0.189,1.497-0.307
	c-1.237,1.678-1.985,3.726-1.985,5.971c0,3.789,2.111,7.058,5.199,8.775c-0.165,0.914-0.276,1.843-0.276,2.796
	c0,8.704,7.058,15.762,15.762,15.762c5.419,0,10.208-2.749,13.044-6.924c0.811,0.181,1.662,0.213,2.497,0.299
	c1.323,8.483,8.602,14.998,17.463,14.998c5.892,0,11.059-2.899,14.273-7.318c0.89,0.52,1.859,0.906,2.954,0.906
	c1.552,0,2.922-0.622,3.986-1.583c0.788,2.891,1.709,4.537,2.678,4.537c0.504,0,1-0.496,1.481-1.355
	c0.48,0.851,0.953,1.355,1.481,1.355c0.969,0,1.875-1.646,2.678-4.537c1.063,0.961,2.434,1.583,3.97,1.583
	c1.095,0,2.08-0.386,2.962-0.906c3.222,4.419,8.389,7.318,14.281,7.318c8.862,0,16.14-6.514,17.463-14.998
	c0.827-0.087,1.694-0.118,2.489-0.299c2.828,4.175,7.633,6.924,13.044,6.924c8.704,0,15.77-7.058,15.77-15.762
	c0-0.953-0.126-1.883-0.276-2.796c3.096-1.725,5.199-4.986,5.199-8.775c0-2.245-0.74-4.293-1.985-5.971
	c0.488,0.118,0.969,0.307,1.489,0.307c3.812,0,6.908-3.096,6.908-6.9c0-0.386-0.165-0.717-0.221-1.079
	c1.252,0.914,2.725,1.56,4.403,1.56c4.222,0,7.641-3.419,7.641-7.633c0-1.473-0.52-2.757-1.237-3.915
	c0.733,0.118,1.457,0.221,2.221,0.221c7.893,0,14.289-6.396,14.289-14.281c0-0.811-0.11-1.575-0.244-2.347
	c11.296-1.796,19.944-11.485,19.944-23.268c0-13.06-10.594-23.647-23.654-23.647c-5.404,0-10.327,1.883-14.305,4.931
	c-3.167-8.35-11.185-14.289-20.661-14.289c-6.664,0-12.572,3.001-16.628,7.656c-3.159-4.892-8.633-8.145-14.895-8.145
	c-9.799,0-17.739,7.94-17.739,17.731c0,1.268,0.158,2.489,0.402,3.679c-3.6-3.167-8.279-5.152-13.446-5.152
	c-4.198,0-8.09,1.268-11.335,3.442c-3.245-2.166-7.136-3.442-11.335-3.442c-5.167,0-9.846,1.985-13.446,5.152
	c0.244-1.182,0.394-2.41,0.394-3.679c0-9.791-7.94-17.731-17.731-17.731c-6.262,0-11.737,3.253-14.895,8.145
	c-4.064-4.655-9.972-7.656-16.628-7.656c-9.476,0-17.487,5.947-20.661,14.289c-3.986-3.048-8.909-4.931-14.312-4.931
	c-13.052,0-23.647,10.587-23.647,23.647C109.946,173.615,118.603,183.304,129.883,185.1z"/>
<path style="fill:#5B3314;" d="M236.465,243.365c0,3.45,2.796,6.239,6.246,6.239l0,0c3.45,0,6.231-2.788,6.231-6.239v-54.485
	c0-3.442-2.788-6.231-6.231-6.231l0,0c-3.45,0-6.246,2.788-6.246,6.246V243.365z"/>
<path style="fill:#7F4718;" d="M253.708,473.6V243.531c0-6.349-5.136-11.492-11.492-11.492c-6.341,0-11.492,5.144-11.492,11.492
	V473.6H253.708z"/>
<g>
	<rect y="420.391" style="fill:#918A83;" width="484.431" height="6.892"/>
	<rect y="442.092" style="fill:#918A83;" width="484.431" height="6.892"/>
	<rect y="463.714" style="fill:#918A83;" width="484.431" height="6.892"/>
</g>
<path style="fill:#A87D4A;" d="M46.356,473.6v-57.431c0-9.429-7.633-17.069-17.061-17.069c-9.413,0-17.061,7.641-17.061,17.069
	V473.6H46.356z"/>
<path style="fill:#8E6436;" d="M46.356,473.6v-57.431c0-9.429-7.633-17.069-17.061-17.069c-9.413,0-17.061,7.641-17.061,17.069"/>
<path style="fill:#A87D4A;" d="M131.521,473.6v-57.431c0-9.429-7.633-17.069-17.061-17.069c-9.413,0-17.061,7.641-17.061,17.069
	V473.6H131.521z"/>
<path style="fill:#8E6436;" d="M131.521,473.6v-57.431c0-9.429-7.633-17.069-17.061-17.069c-9.413,0-17.061,7.641-17.061,17.069"/>
<path style="fill:#A87D4A;" d="M216.694,473.6v-57.431c0-9.429-7.633-17.069-17.061-17.069c-9.413,0-17.061,7.641-17.061,17.069
	V473.6H216.694z"/>
<path style="fill:#8E6436;" d="M216.694,473.6v-57.431c0-9.429-7.633-17.069-17.061-17.069c-9.413,0-17.061,7.641-17.061,17.069"/>
<path style="fill:#A87D4A;" d="M301.859,473.6v-57.431c0-9.429-7.633-17.069-17.061-17.069c-9.413,0-17.061,7.641-17.061,17.069
	V473.6H301.859z"/>
<path style="fill:#8E6436;" d="M301.859,473.6v-57.431c0-9.429-7.633-17.069-17.061-17.069c-9.413,0-17.061,7.641-17.061,17.069"/>
<path style="fill:#A87D4A;" d="M387.033,473.6v-57.431c0-9.429-7.633-17.069-17.061-17.069c-9.413,0-17.061,7.641-17.061,17.069
	V473.6H387.033z"/>
<path style="fill:#8E6436;" d="M387.033,473.6v-57.431c0-9.429-7.633-17.069-17.061-17.069c-9.413,0-17.061,7.641-17.061,17.069"/>
<path style="fill:#A87D4A;" d="M472.198,473.6v-57.431c0-9.429-7.633-17.069-17.061-17.069c-9.413,0-17.061,7.641-17.061,17.069
	V473.6H472.198z"/>
<path style="fill:#8E6436;" d="M472.198,473.6v-57.431c0-9.429-7.633-17.069-17.061-17.069c-9.413,0-17.061,7.641-17.061,17.069"/>
<g>
	<path style="fill:#7F4718;" d="M247.674,243.279c2.434,2.442,2.434,6.396,0,8.822l0,0c-2.45,2.442-6.396,2.442-8.83,0
		l-38.526-38.526c-2.434-2.434-2.434-6.388,0-8.814l0,0c2.434-2.442,6.388-2.45,8.83,0L247.674,243.279z"/>
	<path style="fill:#7F4718;" d="M236.765,243.279c-2.442,2.442-2.442,6.396,0,8.822l0,0c2.442,2.442,6.38,2.442,8.822,0
		l38.526-38.526c2.434-2.434,2.434-6.388,0-8.814l0,0c-2.45-2.442-6.388-2.45-8.83,0L236.765,243.279z"/>
</g>
<path style="fill:#82B725;" d="M391.893,144.581c0.165-1.024,0.315-2.056,0.315-3.119c0-10.516-8.523-19.039-19.039-19.039
	c-1.016,0-1.993,0.15-2.962,0.299c0.945-1.544,1.646-3.261,1.646-5.215c0-5.624-4.561-10.177-10.177-10.177
	c-2.229,0-4.183,0.859-5.86,2.087c0.079-0.488,0.291-0.922,0.291-1.434c0-5.081-4.12-9.192-9.2-9.192
	c-0.709,0-1.323,0.252-1.985,0.402c1.646-2.229,2.647-4.962,2.647-7.948c0-5.057-2.812-9.397-6.94-11.697
	c0.213-1.213,0.378-2.458,0.378-3.734c0-11.603-9.405-21-21.008-21c-7.231,0-13.611,3.663-17.384,9.224
	c-1.079-0.236-2.213-0.284-3.332-0.402c-0.394-2.544-1.252-4.923-2.379-7.129c-4.703-25.97-27.372-45.678-54.689-45.678
	s-50.003,19.708-54.689,45.678c-1.134,2.206-1.985,4.584-2.387,7.129c-1.111,0.118-2.245,0.165-3.324,0.402
	c-3.781-5.561-10.153-9.224-17.384-9.224c-11.603,0-21.008,9.397-21.008,21c0,1.276,0.165,2.513,0.378,3.734
	c-4.12,2.3-6.94,6.648-6.94,11.697c0,2.985,1,5.719,2.647,7.948c-0.662-0.15-1.284-0.402-2.001-0.402
	c-5.073,0-9.184,4.112-9.184,9.192c0,0.504,0.213,0.945,0.291,1.434c-1.678-1.221-3.631-2.087-5.86-2.087
	c-5.624,0-10.177,4.553-10.177,10.177c0,1.953,0.701,3.671,1.638,5.215c-0.969-0.158-1.938-0.299-2.954-0.299
	c-10.516,0-19.039,8.523-19.039,19.039c0,1.071,0.15,2.103,0.315,3.119c-15.037,2.387-26.569,15.297-26.569,31.011
	c0,17.4,14.108,31.508,31.508,31.508c7.2,0,13.761-2.513,19.07-6.577c4.238,11.122,14.919,19.054,27.53,19.054
	c8.885,0,16.754-4.001,22.166-10.208c4.206,6.522,11.5,10.862,19.842,10.862c13.052,0,23.631-10.579,23.631-23.631
	c0-1.686-0.189-3.316-0.52-4.899c4.797,4.222,11.02,6.869,17.912,6.869c5.593,0,10.784-1.694,15.108-4.584
	c4.324,2.891,9.515,4.584,15.108,4.584c6.892,0,13.107-2.647,17.92-6.869c-0.339,1.583-0.528,3.214-0.528,4.899
	c0,13.052,10.579,23.631,23.631,23.631c8.334,0,15.636-4.34,19.842-10.862c5.419,6.207,13.28,10.208,22.166,10.208
	c12.619,0,23.292-7.932,27.522-19.054c5.309,4.064,11.878,6.577,19.078,6.577c17.4,0,31.508-14.108,31.508-31.508
	C418.462,159.886,406.922,146.968,391.893,144.581z"/>
<path style="fill:#96CE1B;" d="M392.208,141.462c0-10.516-8.523-19.039-19.039-19.039c-1.016,0-1.993,0.15-2.962,0.299
	c0.945-1.544,1.646-3.261,1.646-5.215c0-5.624-4.561-10.177-10.177-10.177c-2.229,0-4.183,0.859-5.86,2.087
	c0.079-0.488,0.291-0.922,0.291-1.434c0-5.081-4.12-9.192-9.2-9.192c-0.709,0-1.323,0.252-1.985,0.402
	c1.646-2.229,2.647-4.962,2.647-7.948c0-5.057-2.812-9.397-6.94-11.697c0.213-1.213,0.378-2.458,0.378-3.734
	c0-11.603-9.405-21-21.008-21c-7.231,0-13.611,3.663-17.384,9.224c-1.079-0.236-2.213-0.284-3.332-0.402
	c-0.394-2.544-1.252-4.923-2.379-7.129c-4.703-25.97-27.372-45.678-54.689-45.678s-50.003,19.708-54.689,45.678
	c-1.134,2.206-1.985,4.584-2.387,7.129c-1.111,0.118-2.245,0.165-3.324,0.402c-3.781-5.561-10.153-9.224-17.384-9.224
	c-11.603,0-21.008,9.397-21.008,21c0,1.276,0.165,2.513,0.378,3.734c-4.12,2.3-6.94,6.648-6.94,11.697c0,2.985,1,5.719,2.647,7.948
	c-0.662-0.15-1.284-0.402-2.001-0.402c-5.073,0-9.184,4.112-9.184,9.192c0,0.504,0.213,0.945,0.291,1.434
	c-1.678-1.221-3.631-2.087-5.86-2.087c-5.624,0-10.177,4.553-10.177,10.177c0,1.953,0.701,3.671,1.638,5.215
	c-0.969-0.158-1.938-0.299-2.954-0.299c-10.516,0-19.039,8.523-19.039,19.039c0,1.071,0.15,2.103,0.315,3.119
	c-7.412,1.174-13.95,4.923-18.692,10.295c5.766,6.609,14.155,10.87,23.631,10.87c7.2,0,13.761-2.513,19.07-6.577
	c4.238,11.122,14.919,19.054,27.53,19.054c8.885,0,16.754-4.001,22.166-10.208c4.206,6.522,11.5,10.862,19.842,10.862
	c13.052,0,23.631-10.579,23.631-23.631c0-1.686-0.189-3.316-0.52-4.899c4.797,4.222,11.02,6.869,17.912,6.869
	c5.593,0,10.784-1.694,15.108-4.584c4.324,2.891,9.515,4.584,15.108,4.584c6.892,0,13.107-2.647,17.92-6.869
	c-0.339,1.583-0.528,3.214-0.528,4.899c0,13.052,10.579,23.631,23.631,23.631c8.334,0,15.636-4.34,19.842-10.862
	c5.419,6.207,13.28,10.208,22.166,10.208c12.619,0,23.292-7.932,27.522-19.054c5.309,4.064,11.878,6.577,19.078,6.577
	c9.468,0,17.865-4.261,23.631-10.87c-4.742-5.372-11.28-9.114-18.692-10.295C392.058,143.565,392.208,142.533,392.208,141.462z"/>
<g>
</g>
<g>
</g>
<g>
</g>
<g>
</g>
<g>
</g>
<g>
</g>
<g>
</g>
<g>
</g>
<g>
</g>
<g>
</g>
<g>
</g>
<g>
</g>
<g>
</g>
<g>
</g>
<g>
</g>
</svg>
